<svg xmlns="http://www.w3.org/2000/svg" viewBox="0 0 24 24">
  <path fill="#326ce5" d="M13.95 13.5h-.23c-.18.11-.26.32-.18.5l.86 2.11a5.09 5.09 0 0 0 1.79-2.25l-2.23-.36h-.01Zm-3.45.29a.4.4 0 0 0-.38-.29h-.08l-2.22.37a5.1 5.1 0 0 0 1.79 2.23l.85-2.07V14a.35.35 0 0 0 .04-.21Zm1.83.81a.38.38 0 0 0-.66 0h-.01l-1.09 1.97c.78.26 1.62.31 2.43.12.14-.03.29-.07.43-.12l-1.09-1.97h-.01Zm3.45-4.57-1.68 1.47.01.03a.38.38 0 0 0 .14.65l.01.01 2.17.62a5.11 5.11 0 0 0-.65-2.78Zm-3.11.16a.38.38 0 0 0 .61.31l1.83-1.31a5.12 5.12 0 0 0-2.57-1.24l.13 2.24Zm-1.94.31a.38.38 0 0 0 .61-.3l.12-2.25c-.15.02-.3.05-.46.08-.8.18-1.54.58-2.12 1.16l1.85 1.31Zm-.99 1.69a.38.38 0 0 0 .15-.65v-.01L8.21 10a5.1 5.1 0 0 0-.63 2.82l2.16-.62v-.01Zm1.64.66.62.3.62-.3.15-.67-.43-.53h-.69l-.43.53.16.67Zm10.89 1.32L20.5 6.5c-.09-.42-.37-.76-.74-.94l-7.17-3.43a1.4 1.4 0 0 0-1.19 0L4.24 5.56c-.37.18-.65.52-.74.94l-1.77 7.67c-.05.2-.05.4 0 .59.01.06.03.12.05.18.03.09.08.19.13.27.03.04.05.08.09.11l4.95 6.18.05.06c.1.09.19.16.28.22.12.08.26.14.4.17.11.05.23.05.32.05h8.12c.07 0 .14-.03.2-.05l.14-.04.11-.05.15-.08c.12-.08.23-.18.33-.28l.15-.2 4.8-5.98c.1-.12.17-.25.22-.38.02-.06.04-.12.05-.18.05-.19.05-.4 0-.59Zm-7.43 2.99.07.17a.4.4 0 0 0-.03.26c.12.24.23.46.38.68l.24.34.04.12a.43.43 0 0 1-.75.44l-.03-.08-.06-.09-.12-.41c-.09-.25-.17-.49-.3-.72a.3.3 0 0 0-.21-.14l-.08-.16a5.75 5.75 0 0 1-3.97-.01l-.1.18a.33.33 0 0 0-.19.09c-.14.24-.24.49-.33.77l-.12.4-.06.1a.43.43 0 1 1-.77-.37l.04-.08.04-.11.24-.35c.16-.21.29-.45.39-.69a.44.44 0 0 0-.03-.25l.07-.18a5.76 5.76 0 0 1-2.47-3.09l-.2.03a.41.41 0 0 0-.23-.09c-.27.05-.51.13-.77.22l-.37.15-.13.03a.43.43 0 0 1-.26-.82l.08-.01h.01l.11-.02.41-.04c.26 0 .52-.06.77-.12a.45.45 0 0 0 .19-.19l.19-.05a5.74 5.74 0 0 1 .86-3.87l-.14-.12a.42.42 0 0 0-.08-.25 5.5 5.5 0 0 0-.64-.45l-.36-.21-.08-.07-.01-.01a.43.43 0 0 1 .24-.78c.11.01.21.05.3.12l.09.07.28.3c.18.19.37.37.58.52.08.04.17.05.26.03l.15.11a5.77 5.77 0 0 1 3.58-1.72l.01-.18a.42.42 0 0 0 .14-.23 5.1 5.1 0 0 0-.05-.77l-.06-.41V5.1a.43.43 0 0 1 .86-.1v.22l-.06.41c-.04.25-.06.51-.05.77.02.1.07.17.14.22l.01.19a5.76 5.76 0 0 1 3.56 1.72l.16-.12a.42.42 0 0 0 .26-.03c.21-.15.41-.33.58-.52l.28-.3.1-.06a.43.43 0 0 1 .59.6l-.06.06-.09.07-.35.21c-.23.13-.45.28-.64.45a.36.36 0 0 0-.08.24l-.16.14a5.74 5.74 0 0 1 .88 3.86l.19.05c.04.08.11.14.19.18.25.07.51.11.77.14h.41l.12.05a.43.43 0 0 1-.11.85l-.07-.02-.14-.03-.36-.15c-.26-.1-.5-.17-.77-.21-.09 0-.17 0-.23.08l-.19-.03a5.78 5.78 0 0 1-2.47 3.11Z"/>
</svg>
